<?xml version="1.0" encoding="UTF-8" standalone="no"?>
<svg
   xmlns:dc="http://purl.org/dc/elements/1.1/"
   xmlns:cc="http://creativecommons.org/ns#"
   xmlns:rdf="http://www.w3.org/1999/02/22-rdf-syntax-ns#"
   xmlns:svg="http://www.w3.org/2000/svg"
   xmlns="http://www.w3.org/2000/svg"
   xmlns:sodipodi="http://sodipodi.sourceforge.net/DTD/sodipodi-0.dtd"
   xmlns:inkscape="http://www.inkscape.org/namespaces/inkscape"
   inkscape:version="1.0beta2 (2b71d25, 2019-12-03)"
   sodipodi:docname="27682849_1.svg"
   id="svg112"
   xml:space="preserve"
   viewBox="0 0 354.86578 100.97557"
   height="100.97557"
   width="354.86578"
   version="1.1"><metadata
   id="metadata116"><rdf:RDF><cc:Work
       rdf:about=""><dc:format>image/svg+xml</dc:format><dc:type
         rdf:resource="http://purl.org/dc/dcmitype/StillImage" /><dc:title></dc:title></cc:Work></rdf:RDF></metadata><sodipodi:namedview
   inkscape:current-layer="svg112"
   inkscape:window-maximized="0"
   inkscape:window-y="0"
   inkscape:window-x="0"
   inkscape:cy="146.98891"
   inkscape:cx="316.8234"
   inkscape:zoom="1.772"
   showguides="true"
   showgrid="false"
   id="namedview114"
   inkscape:window-height="776"
   inkscape:window-width="1420"
   inkscape:pageshadow="2"
   inkscape:pageopacity="0"
   guidetolerance="10"
   gridtolerance="10"
   objecttolerance="10"
   borderopacity="1"
   inkscape:document-rotation="0"
   bordercolor="#666666"
   pagecolor="#ffffff" />
<desc
   id="desc10">Created with Fabric.js 3.6.3</desc>
<defs
   id="defs12">
</defs>



<g
   transform="translate(-71.999996,-200.5)"
   id="g167"><g
     id="g16"
     transform="matrix(4.2073153,0,0,4.2073153,122.48778,250.98778)"><path
       inkscape:connector-curvature="0"
       id="path14"
       stroke-linecap="round"
       d="M 5.0722656,0 C 2.2623755,0 0,2.2623755 0,5.0722656 V 18.927734 C 0,21.737625 2.2623755,24 5.0722656,24 H 18.927734 C 21.737625,24 24,21.737625 24,18.927734 V 5.0722656 C 24,2.2623755 21.737625,0 18.927734,0 Z M 12,5 c 3.871916,0 7,3.1281 7,7 0,3.8719 -3.128084,7 -7,7 C 8.128084,19 5,15.8719 5,12 5,8.1281 8.128084,5 12,5 Z"
       transform="translate(-12,-12)"
       style="opacity:0.8;fill:#2a2c2b;fill-rule:nonzero;stroke:none;stroke-width:0;stroke-linecap:butt;stroke-linejoin:miter;stroke-miterlimit:4;stroke-dasharray:none;stroke-dashoffset:0" /></g><g
     id="g42"
     transform="translate(330.04577,239.40241)"><path
       inkscape:connector-curvature="0"
       id="path18"
       d="m -129.48,-9.73 h -7.16 v -2.3 h 17.01 v 2.3 h -7.16 v 20.98 h -2.69 z"
       opacity="1"
       fill="#2A2C2B" /><path
       inkscape:connector-curvature="0"
       id="path20"
       d="m -101.44,2.87 v 0 h -15.04 q 0.18,3.22 2.27,4.85 2.1,1.63 5.21,1.63 v 0 q 3.73,0 6.23,-1.32 v 0 l 0.75,2.25 q -2.9,1.33 -7.12,1.33 v 0 q -4.76,0 -7.36,-2.49 -2.6,-2.49 -2.6,-6.79 v 0 q 0,-4.15 2.76,-6.75 2.76,-2.59 6.95,-2.59 v 0 q 4.08,0 6.16,2 2.07,2.01 2.07,5.34 v 0 q 0,1.39 -0.28,2.54 z m -15.01,-2.18 v 0 h 12.82 q 0,-2.94 -1.45,-4.21 -1.45,-1.27 -4.6,-1.27 v 0 q -2.58,0 -4.53,1.45 -1.95,1.45 -2.24,4.03 z"
       opacity="1"
       fill="#2A2C2B" /><path
       inkscape:connector-curvature="0"
       id="path22"
       d="m -82.29,-5.83 v 0 l -1.14,2.04 q -2.04,-1 -4.94,-1 v 0 q -3.62,0 -5.64,1.84 -2.03,1.84 -2.03,5.28 v 0 q 0,3.12 2.05,5.05 2.04,1.93 5.08,1.93 v 0 q 3.44,0 6.02,-1.28 v 0 l 0.85,2.11 q -2.97,1.47 -7.05,1.47 v 0 q -4.37,0 -6.96,-2.6 -2.6,-2.6 -2.6,-6.61 v 0 q 0,-4.15 2.86,-6.78 2.87,-2.63 7.2,-2.63 v 0 q 3.83,0 6.3,1.18 z"
       opacity="1"
       fill="#2A2C2B" /><path
       inkscape:connector-curvature="0"
       id="path24"
       d="m -78.28,11.25 v -26.14 h 2.58 v 11.24 q 2.47,-3.36 6.91,-3.36 v 0 q 3.62,0 5.61,2 1.98,2.01 1.98,5.8 v 0 10.46 h -2.57 V 0.76 q 0,-2.69 -1.28,-4.12 -1.27,-1.43 -3.74,-1.43 v 0 q -2.4,0 -3.99,0.95 -1.59,0.94 -2.92,3.02 v 0 12.07 z"
       opacity="1"
       fill="#2A2C2B" /><path
       inkscape:connector-curvature="0"
       id="path26"
       d="M -56.54,11.25 V -6.66 h 2.15 l 0.28,3.23 q 2.37,-3.58 7.24,-3.58 v 0 q 3.61,0 5.55,2 1.93,2.01 1.93,5.8 v 0 10.46 h -2.58 V 0.76 q 0,-5.55 -4.9,-5.55 v 0 q -2.47,0 -4.16,0.96 -1.68,0.97 -2.93,3.01 v 0 12.07 z"
       opacity="1"
       fill="#2A2C2B" /><path
       inkscape:connector-curvature="0"
       id="path28"
       d="m -18.8,-4.45 q 2.83,2.56 2.83,6.75 0,4.19 -2.83,6.75 -2.83,2.56 -7.09,2.56 -4.26,0 -7.09,-2.56 -2.83,-2.56 -2.83,-6.75 0,-4.19 2.83,-6.75 2.83,-2.56 7.09,-2.56 4.26,0 7.09,2.56 z m -12.37,1.55 q -2.02,1.97 -2.02,5.2 0,3.22 2.02,5.19 2.02,1.97 5.28,1.97 3.26,0 5.28,-1.97 2.02,-1.97 2.02,-5.19 0,-3.23 -2.02,-5.2 -2.02,-1.96 -5.28,-1.96 -3.26,0 -5.28,1.96 z"
       opacity="1"
       fill="#2A2C2B" /><path
       inkscape:connector-curvature="0"
       id="path30"
       d="m -12.39,11.25 v -23.28 h 8.09 q 3.37,0 5.48,1.47 2.11,1.47 2.11,4.41 v 0 q 0,1.36 -0.62,2.65 -0.63,1.28 -1.78,2 v 0 0.14 q 1.94,0.72 2.99,2.21 1.06,1.48 1.06,3.45 v 0 q 0,3.08 -2.2,5.01 -2.2,1.94 -5.89,1.94 v 0 z M -3.15,0.01 h -6.59 v 8.95 h 6.26 q 2.65,0 4.21,-1.13 Q 2.29,6.7 2.29,4.45 v 0 q 0,-4.44 -5.44,-4.44 z m -0.86,-9.85 h -5.73 v 7.7 h 6.19 q 2.04,0 3.12,-1.06 1.07,-1.06 1.07,-2.85 v 0 q 0,-1.82 -1.23,-2.81 -1.24,-0.98 -3.42,-0.98 z"
       opacity="1"
       fill="#2A2C2B" /><path
       inkscape:connector-curvature="0"
       id="path32"
       d="m 24.45,-4.45 q 2.83,2.56 2.83,6.75 0,4.19 -2.83,6.75 -2.82,2.56 -7.09,2.56 -4.26,0 -7.09,-2.56 Q 7.45,6.49 7.45,2.3 q 0,-4.19 2.82,-6.75 2.83,-2.56 7.09,-2.56 4.27,0 7.09,2.56 z M 12.08,-2.9 q -2.02,1.97 -2.02,5.2 0,3.22 2.02,5.19 2.03,1.97 5.28,1.97 3.26,0 5.29,-1.97 2.02,-1.97 2.02,-5.19 0,-3.23 -2.02,-5.2 -2.03,-1.96 -5.29,-1.96 -3.25,0 -5.28,1.96 z"
       opacity="1"
       fill="#2A2C2B" /><path
       inkscape:connector-curvature="0"
       id="path34"
       d="m 38.96,-7.01 h 9.59 v 1.82 h -4.62 q 2.58,1.58 2.58,4.41 v 0 q 0,2.72 -2.09,4.47 -2.1,1.76 -5.75,1.76 v 0 q -2.94,0 -4.83,-1 v 0 q -1.65,0.68 -1.65,2.22 v 0 q 0,1.03 0.86,1.73 0.86,0.7 2.68,0.7 v 0 h 4.73 q 3.22,0 5.94,0.68 v 0 q 1.44,1.86 1.44,4.05 v 0 q 0,1.86 -0.97,3.2 -0.97,1.34 -2.58,2.02 -1.61,0.68 -3.28,0.99 -1.66,0.3 -3.49,0.3 v 0 q -3.86,0 -5.94,-1.46 -2.08,-1.47 -2.08,-4.09 v 0 q 0,-2.83 2.47,-4.47 v 0 q -2,-0.97 -2,-3.3 v 0 q 0,-2.36 2.33,-3.76 v 0 Q 30.86,1.58 30.86,-0.78 v 0 q 0,-2.87 2.13,-4.55 2.13,-1.68 5.97,-1.68 z m 1.79,18.26 v 0 h -4.41 q -1.07,0 -2.43,-0.18 v 0 q -2.12,1.04 -2.12,3.33 v 0 q 0,3.83 6.09,3.83 v 0 q 1.18,0 2.35,-0.18 1.16,-0.18 2.45,-0.61 1.29,-0.43 2.08,-1.34 0.78,-0.91 0.78,-2.17 v 0 q 0,-1.21 -0.71,-2.25 v 0 q -2.01,-0.43 -4.08,-0.43 z m -6.09,-15.2 q -1.47,1.13 -1.47,3.17 0,2.04 1.42,3.11 1.41,1.08 4.06,1.08 v 0 q 2.47,0 3.96,-1.08 1.48,-1.07 1.48,-3.11 v 0 q 0,-2.08 -1.52,-3.19 -1.52,-1.11 -3.92,-1.11 v 0 q -2.54,0 -4.01,1.13 z"
       opacity="1"
       fill="#2A2C2B" /><path
       inkscape:connector-curvature="0"
       id="path36"
       d="m 59.8,-7.01 h 9.59 v 1.82 h -4.62 q 2.58,1.58 2.58,4.41 v 0 q 0,2.72 -2.09,4.47 -2.1,1.76 -5.75,1.76 v 0 q -2.94,0 -4.83,-1 v 0 q -1.65,0.68 -1.65,2.22 v 0 q 0,1.03 0.86,1.73 0.86,0.7 2.68,0.7 v 0 h 4.73 q 3.22,0 5.94,0.68 v 0 q 1.44,1.86 1.44,4.05 v 0 q 0,1.86 -0.97,3.2 -0.97,1.34 -2.58,2.02 -1.61,0.68 -3.28,0.99 -1.66,0.3 -3.49,0.3 v 0 q -3.86,0 -5.94,-1.46 -2.08,-1.47 -2.08,-4.09 v 0 q 0,-2.83 2.47,-4.47 v 0 q -2,-0.97 -2,-3.3 v 0 q 0,-2.36 2.33,-3.76 v 0 Q 51.7,1.58 51.7,-0.78 v 0 q 0,-2.87 2.13,-4.55 2.13,-1.68 5.97,-1.68 z m 1.79,18.26 v 0 h -4.41 q -1.07,0 -2.43,-0.18 v 0 q -2.12,1.04 -2.12,3.33 v 0 q 0,3.83 6.09,3.83 v 0 q 1.18,0 2.35,-0.18 1.16,-0.18 2.45,-0.61 1.29,-0.43 2.08,-1.34 0.78,-0.91 0.78,-2.17 v 0 q 0,-1.21 -0.71,-2.25 v 0 Q 63.66,11.25 61.59,11.25 Z M 55.5,-3.95 q -1.47,1.13 -1.47,3.17 0,2.04 1.42,3.11 1.41,1.08 4.06,1.08 v 0 q 2.47,0 3.96,-1.08 1.48,-1.07 1.48,-3.11 v 0 q 0,-2.08 -1.52,-3.19 -1.52,-1.11 -3.92,-1.11 v 0 q -2.54,0 -4.01,1.13 z"
       opacity="1"
       fill="#2A2C2B" /><path
       inkscape:connector-curvature="0"
       id="path38"
       d="M 71.83,5.77 V -14.89 H 74.4 V 6.34 q 0,1.44 0.61,2.1 0.61,0.66 2.12,0.73 v 0 2.22 q -0.51,0.07 -0.86,0.07 v 0 q -4.44,0 -4.44,-5.69 z"
       opacity="1"
       fill="#2A2C2B" /><path
       inkscape:connector-curvature="0"
       id="path40"
       d="m 96.53,2.87 v 0 H 81.49 q 0.18,3.22 2.28,4.85 2.09,1.63 5.21,1.63 v 0 q 3.72,0 6.23,-1.32 v 0 l 0.75,2.25 q -2.9,1.33 -7.12,1.33 v 0 q -4.77,0 -7.36,-2.49 -2.6,-2.49 -2.6,-6.79 v 0 q 0,-4.15 2.76,-6.75 2.76,-2.59 6.94,-2.59 v 0 q 4.09,0 6.16,2 2.08,2.01 2.08,5.34 v 0 q 0,1.39 -0.29,2.54 z m -15,-2.18 v 0 h 12.82 q 0,-2.94 -1.45,-4.21 -1.45,-1.27 -4.6,-1.27 v 0 q -2.58,0 -4.53,1.45 -1.95,1.45 -2.24,4.03 z"
       opacity="1"
       fill="#2A2C2B" /></g><g
     id="g46"
     transform="matrix(1.1783798,0,0,1.1783798,122.48778,248.75308)"><path
       inkscape:connector-curvature="0"
       id="path44"
       stroke-linecap="round"
       d="M 88.048,48.812 C 88.048,70.07 70.815,87.3 49.56,87.3 28.305,87.3 11.073,70.07 11.073,48.812 c 0,-21.253 17.232,-38.483 38.487,-38.483 21.255,0 38.488,17.23 38.488,38.483 z"
       transform="translate(-49.5605,-48.8145)"
       style="opacity:1;fill:#f1f2f2;fill-rule:nonzero;stroke:none;stroke-width:0;stroke-linecap:butt;stroke-linejoin:miter;stroke-miterlimit:4;stroke-dasharray:none;stroke-dashoffset:0" /></g><g
     id="g50"
     transform="matrix(0.79295903,0,0,-0.79295903,122.48778,248.75308)"><path
       inkscape:connector-curvature="0"
       id="path48"
       stroke-linecap="round"
       d="m 23.675,9.495 -0.133,4.044 -1.654,1.856 H 9.593 c -0.828,0 -1.5,0.672 -1.5,1.5 0,0.827 0.672,1.5 1.5,1.5 h 9.619 l -1.739,1.95 -0.047,0.056 c -3.466,4.288 -3.493,7.865 -1.971,11.828 l 4.583,11.732 c 0.478,1.131 1.528,3.057 3.069,4.129 l 7.783,5.315 c -0.581,0.533 -1.128,1.058 -1.629,1.567 -1.552,1.575 -3.117,3.403 -3.332,4.957 -0.017,0.123 -0.027,0.251 -0.027,0.384 0,0.121 0.005,0.241 0.017,0.358 -0.04,0.252 -0.016,0.519 0.086,0.78 6.914,17.67 12.095,26.639 21.751,27.909 h 0.391 c 9.782,-1.286 14.926,-10.463 21.751,-27.909 0.101,-0.26 0.125,-0.526 0.086,-0.777 0.012,-0.118 0.018,-0.239 0.018,-0.361 0,-0.132 -0.01,-0.259 -0.027,-0.381 -0.212,-1.539 -1.812,-3.42 -3.324,-4.957 -0.503,-0.511 -1.051,-1.038 -1.633,-1.573 l 7.779,-5.313 c 1.54,-1.071 2.591,-2.996 3.069,-4.129 l 4.582,-11.731 c 1.526,-3.974 1.494,-7.542 -1.971,-11.828 l -0.047,-0.056 -1.74,-1.95 h 9.196 c 0.827,0 1.5,-0.673 1.5,-1.5 0,-0.828 -0.673,-1.5 -1.5,-1.5 H 74.015 L 72.359,13.538 72.227,9.495 C 72.2,8.687 71.536,8.045 70.728,8.045 H 25.175 c -0.809,0 -1.473,0.642 -1.5,1.45 z m 45.601,1.55 0.054,1.663 H 26.571 l 0.055,-1.663 z m 0.152,4.663 0.882,26.921 c 0,0.533 -0.456,0.99 -1.015,0.99 H 26.608 c -0.56,0 -1.015,-0.457 -1.015,-0.99 l 0.88,-26.921 z M 44.065,19.307 43.807,22.2 H 41.84 c -0.745,0 -1.351,0.605 -1.351,1.349 v 0.481 c 0,0.539 0.317,1.004 0.773,1.219 -1.279,1.492 -2.052,3.43 -2.052,5.545 0,4.706 3.82,8.525 8.529,8.525 4.708,0 8.529,-3.819 8.529,-8.525 0,-2.115 -0.773,-4.053 -2.052,-5.545 0.455,-0.215 0.771,-0.68 0.771,-1.219 v -0.481 c 0,-0.744 -0.605,-1.349 -1.349,-1.349 h -1.966 l -0.259,-2.893 z m 3.03,4.653 0.299,1.283 c 0.069,0.297 -0.117,0.594 -0.412,0.662 -0.297,0.069 -0.593,-0.116 -0.661,-0.412 l -0.299,-1.284 c -0.069,-0.296 0.117,-0.593 0.412,-0.661 0.298,-0.069 0.593,0.115 0.661,0.412 z m 2.592,0.249 -0.299,1.284 c -0.069,0.297 -0.365,0.481 -0.662,0.412 -0.297,-0.068 -0.482,-0.366 -0.412,-0.662 l 0.299,-1.283 c 0.069,-0.297 0.367,-0.481 0.662,-0.412 0.297,0.068 0.481,0.366 0.412,0.661 z m -2.893,5.252 c 0,0.127 -0.008,0.253 -0.026,0.375 -1.704,0.096 -3.307,0.442 -4.725,0.984 -0.247,-0.395 -0.389,-0.86 -0.389,-1.359 0,-1.419 1.15,-2.571 2.572,-2.571 1.416,0 2.568,1.152 2.568,2.571 z m 7.031,0 c 0,0.499 -0.144,0.964 -0.389,1.359 -1.419,-0.542 -3.02,-0.888 -4.726,-0.984 -0.018,-0.122 -0.026,-0.248 -0.026,-0.375 0,-1.419 1.151,-2.571 2.57,-2.571 1.421,0 2.571,1.152 2.571,2.571 z m -5.736,20.563 1.85,0.413 c 1.663,0.454 3.233,1.12 4.646,2.204 l 0.738,0.627 c 0.062,0.054 0.109,0.118 0.141,0.188 l 0.94,2.109 c 0.619,1.502 1.158,3.047 1.625,4.755 l 0.562,2.329 c 0.055,0.23 -0.064,0.467 -0.291,0.58 l -0.799,0.392 H 38.403 l -0.8,-0.392 c -0.227,-0.113 -0.346,-0.35 -0.291,-0.58 l 0.562,-2.329 c 0.467,-1.708 1.006,-3.253 1.625,-4.755 l 0.94,-2.109 c 0.031,-0.07 0.08,-0.134 0.141,-0.188 l 0.723,-0.614 c 1.429,-1.097 2.998,-1.763 4.642,-2.212 l 1.869,-0.418 z m 0.205,7.402 -0.179,5.024 2.294,-5.024 z m 15.277,11.46 -15.4,15.386 c -0.292,0.292 -0.293,0.768 0,1.061 0.292,0.292 0.768,0.293 1.061,0 L 61.699,72.878 c -4.09,8.224 -7.734,12.091 -12.55,13.25 l -1.198,0.22 -1.186,-0.218 C 40.738,84.683 36.509,78.97 30.883,65.526 c 0.679,0.284 1.385,0.535 2.093,0.757 3.901,1.219 9.196,1.951 14.976,1.951 0.953,0 1.894,-0.02 2.818,-0.059 l -2.599,2.597 c -0.292,0.292 -0.293,0.768 0,1.061 0.292,0.292 0.768,0.293 1.061,0 l 3.796,-3.793 c 0.905,-0.07 1.789,-0.159 2.647,-0.265 l -7.504,7.497 c -0.292,0.292 -0.293,0.768 0,1.061 0.292,0.292 0.768,0.293 1.061,0 l 8.845,-8.836 c 0.027,-0.028 0.052,-0.057 0.074,-0.088 1.067,-0.185 2.081,-0.398 3.033,-0.638 L 48.171,79.772 c -0.292,0.292 -0.293,0.768 0,1.061 0.292,0.292 0.768,0.293 1.061,0 L 64.125,65.955 c 0.035,-0.036 0.066,-0.074 0.092,-0.114 0.271,-0.1 0.538,-0.206 0.802,-0.317 -0.493,1.179 -0.975,2.298 -1.448,3.362 z"
       transform="translate(-47.7395,-48.7025)"
       style="opacity:1;fill:#2a2c2b;fill-rule:evenodd;stroke:none;stroke-width:0;stroke-linecap:round;stroke-linejoin:round;stroke-miterlimit:79.8403;stroke-dasharray:none;stroke-dashoffset:0" /></g><g
     id="g110"
     transform="translate(329.12584,289.17289)"><path
       inkscape:connector-curvature="0"
       id="path52"
       d="m -136.13,4.93 v -10.2 h 1.17 v 10.2 z"
       opacity="1"
       fill="#424644" /><path
       inkscape:connector-curvature="0"
       id="path54"
       d="m -132.92,4.93 v -7.85 h 0.95 l 0.12,1.42 q 1.04,-1.57 3.17,-1.57 v 0 q 1.59,0 2.43,0.87 0.85,0.88 0.85,2.55 v 0 4.58 h -1.13 v -4.6 q 0,-2.43 -2.15,-2.43 v 0 q -1.08,0 -1.82,0.42 -0.74,0.43 -1.29,1.32 v 0 5.29 z"
       opacity="1"
       fill="#424644" /><path
       inkscape:connector-curvature="0"
       id="path56"
       d="m -123.36,4.93 v -7.85 h 0.94 l 0.13,1.42 q 1.04,-1.57 3.17,-1.57 v 0 q 1.59,0 2.43,0.87 0.85,0.88 0.85,2.55 v 0 4.58 h -1.13 v -4.6 q 0,-2.43 -2.15,-2.43 v 0 q -1.08,0 -1.82,0.42 -0.74,0.43 -1.29,1.32 v 0 5.29 z"
       opacity="1"
       fill="#424644" /><path
       inkscape:connector-curvature="0"
       id="path58"
       d="m -106.82,-1.95 q 1.24,1.12 1.24,2.96 0,1.83 -1.24,2.96 -1.24,1.12 -3.1,1.12 -1.87,0 -3.11,-1.12 -1.24,-1.13 -1.24,-2.96 0,-1.84 1.24,-2.96 1.24,-1.12 3.11,-1.12 1.86,0 3.1,1.12 z m -5.42,0.68 q -0.88,0.86 -0.88,2.28 0,1.41 0.88,2.27 0.89,0.87 2.32,0.87 1.43,0 2.31,-0.87 0.89,-0.86 0.89,-2.27 0,-1.42 -0.89,-2.28 -0.88,-0.86 -2.31,-0.86 -1.43,0 -2.32,0.86 z"
       opacity="1"
       fill="#424644" /><path
       inkscape:connector-curvature="0"
       id="path60"
       d="m -101.4,4.93 -3.47,-7.85 h 1.29 l 2.85,6.83 h 0.15 l 2.98,-6.83 h 1.25 l -3.61,7.85 z"
       opacity="1"
       fill="#424644" /><path
       inkscape:connector-curvature="0"
       id="path62"
       d="m -94.45,-1.49 v 0 l -0.3,-0.94 q 1.51,-0.64 3.22,-0.64 1.71,0 2.51,0.64 0.8,0.64 0.8,2.04 v 0 3.41 q 0,0.62 0.22,0.86 0.22,0.23 0.83,0.25 v 0 0.8 q -0.42,0.16 -0.86,0.16 v 0 q -0.49,0 -0.74,-0.31 -0.26,-0.3 -0.33,-1.04 v 0 q -1.25,1.35 -3.48,1.35 v 0 q -1.37,0 -2.04,-0.61 -0.68,-0.62 -0.68,-1.73 v 0 q 0,-1.04 0.68,-1.82 v 0 q 1.96,-0.6 5.29,-0.69 v 0 -0.58 q 0,-0.93 -0.5,-1.34 -0.51,-0.41 -1.78,-0.41 v 0 q -1.41,0 -2.84,0.6 z m 5.12,4.38 v 0 -1.82 q -2.65,0.05 -4.4,0.5 v 0 q -0.4,0.47 -0.4,1.08 v 0 q 0,1.45 1.66,1.45 v 0 q 1.91,0 3.14,-1.21 z"
       opacity="1"
       fill="#424644" /><path
       inkscape:connector-curvature="0"
       id="path64"
       d="m -85.47,-1.91 -1.27,-0.18 v -0.45 l 0.97,-0.6 1.08,-1.71 0.35,0.05 v 1.88 h 3.22 l -0.05,1.01 -3.17,-0.11 v 4.28 q 0,1.82 1.65,1.82 v 0 q 0.94,0 1.74,-0.48 v 0 l 0.42,0.89 q -0.95,0.6 -2.29,0.6 v 0 q -2.65,0 -2.65,-2.81 v 0 z"
       opacity="1"
       fill="#424644" /><path
       inkscape:connector-curvature="0"
       id="path66"
       d="m -79.27,4.93 v -7.85 h 1.13 V 4.93 Z M -79.36,-6 q 0.25,-0.26 0.65,-0.26 0.41,0 0.66,0.26 0.24,0.26 0.24,0.63 v 0 q 0,0.37 -0.25,0.63 -0.25,0.27 -0.65,0.27 -0.39,0 -0.64,-0.27 Q -79.6,-5 -79.6,-5.37 v 0 q 0,-0.37 0.24,-0.63 z"
       opacity="1"
       fill="#424644" /><path
       inkscape:connector-curvature="0"
       id="path68"
       d="m -69.12,-1.95 q 1.24,1.12 1.24,2.96 0,1.83 -1.24,2.96 -1.24,1.12 -3.1,1.12 -1.87,0 -3.11,-1.12 -1.24,-1.13 -1.24,-2.96 0,-1.84 1.24,-2.96 1.24,-1.12 3.11,-1.12 1.86,0 3.1,1.12 z m -5.42,0.68 q -0.89,0.86 -0.89,2.28 0,1.41 0.89,2.27 0.89,0.87 2.32,0.87 1.42,0 2.31,-0.87 0.89,-0.86 0.89,-2.27 0,-1.42 -0.89,-2.28 -0.89,-0.86 -2.31,-0.86 -1.43,0 -2.32,0.86 z"
       opacity="1"
       fill="#424644" /><path
       inkscape:connector-curvature="0"
       id="path70"
       d="m -66.31,4.93 v -7.85 h 0.94 l 0.13,1.42 q 1.04,-1.57 3.17,-1.57 v 0 q 1.59,0 2.43,0.87 0.85,0.88 0.85,2.55 v 0 4.58 h -1.13 v -4.6 q 0,-2.43 -2.15,-2.43 v 0 q -1.08,0 -1.82,0.42 -0.74,0.43 -1.29,1.32 v 0 5.29 z"
       opacity="1"
       fill="#424644" /><path
       inkscape:connector-curvature="0"
       id="path72"
       d=""
       opacity="1"
       fill="#424644" /><path
       inkscape:connector-curvature="0"
       id="path74"
       d="m -51.55,-1.91 -1.28,-0.18 v -0.45 l 0.98,-0.6 1.08,-1.71 0.35,0.05 v 1.88 h 3.21 l -0.04,1.01 -3.17,-0.11 v 4.28 q 0,1.82 1.64,1.82 v 0 q 0.95,0 1.75,-0.48 v 0 l 0.42,0.89 q -0.96,0.6 -2.29,0.6 v 0 q -2.65,0 -2.65,-2.81 v 0 z"
       opacity="1"
       fill="#424644" /><path
       inkscape:connector-curvature="0"
       id="path76"
       d="M -45.35,4.93 V -6.53 h 1.13 v 4.93 q 1.08,-1.47 3.02,-1.47 v 0 q 1.59,0 2.46,0.87 0.87,0.88 0.87,2.55 v 0 4.58 H -39 v -4.6 q 0,-1.18 -0.56,-1.8 -0.55,-0.63 -1.64,-0.63 v 0 q -1.05,0 -1.75,0.42 -0.69,0.41 -1.27,1.32 v 0 5.29 z"
       opacity="1"
       fill="#424644" /><path
       inkscape:connector-curvature="0"
       id="path78"
       d="m -35.83,4.93 v -7.85 h 0.96 l 0.09,1.45 q 0.52,-0.82 1.34,-1.21 0.81,-0.39 1.68,-0.39 v 0 q 1.44,0 2.27,1.03 v 0 l -0.78,0.72 q -0.65,-0.75 -1.68,-0.75 v 0 q -1.63,0 -2.75,1.7 v 0 5.3 z"
       opacity="1"
       fill="#424644" /><path
       inkscape:connector-curvature="0"
       id="path80"
       d="m -21.64,-1.95 q 1.24,1.12 1.24,2.96 0,1.83 -1.24,2.96 -1.24,1.12 -3.11,1.12 -1.87,0 -3.11,-1.12 -1.24,-1.13 -1.24,-2.96 0,-1.84 1.24,-2.96 1.24,-1.12 3.11,-1.12 1.87,0 3.11,1.12 z m -5.42,0.68 q -0.89,0.86 -0.89,2.28 0,1.41 0.89,2.27 0.88,0.87 2.31,0.87 1.43,0 2.32,-0.87 0.88,-0.86 0.88,-2.27 0,-1.42 -0.88,-2.28 -0.89,-0.86 -2.32,-0.86 -1.43,0 -2.31,0.86 z"
       opacity="1"
       fill="#424644" /><path
       inkscape:connector-curvature="0"
       id="path82"
       d="m -18.83,1.67 v -4.59 h 1.13 v 4.6 q 0,1.16 0.54,1.8 0.54,0.63 1.56,0.63 v 0 q 1.07,0 1.77,-0.42 0.7,-0.42 1.26,-1.33 v 0 -5.28 h 1.13 v 7.85 h -0.94 l -0.13,-1.38 q -1.11,1.54 -3.09,1.54 v 0 q -3.23,0 -3.23,-3.42 z"
       opacity="1"
       fill="#424644" /><path
       inkscape:connector-curvature="0"
       id="path84"
       d="m -5.69,-3.07 h 4.2 v 0.8 h -2.02 q 1.13,0.69 1.13,1.93 v 0 q 0,1.19 -0.92,1.96 -0.92,0.77 -2.52,0.77 v 0 q -1.29,0 -2.12,-0.44 v 0 q -0.72,0.3 -0.72,0.97 v 0 q 0,0.46 0.38,0.76 0.37,0.31 1.17,0.31 v 0 h 2.07 q 1.42,0 2.61,0.3 v 0 Q -1.8,5.1 -1.8,6.06 v 0 q 0,0.82 -0.43,1.41 -0.42,0.58 -1.13,0.88 -0.7,0.3 -1.43,0.43 -0.73,0.14 -1.53,0.14 v 0 q -1.7,0 -2.61,-0.65 -0.91,-0.64 -0.91,-1.79 v 0 q 0,-1.24 1.09,-1.96 v 0 Q -9.63,4.1 -9.63,3.08 v 0 q 0,-1.04 1.02,-1.65 v 0 Q -9.24,0.69 -9.24,-0.34 v 0 q 0,-1.26 0.93,-2 0.94,-0.73 2.62,-0.73 z m 0.78,8 v 0 h -1.93 q -0.47,0 -1.07,-0.08 v 0 q -0.92,0.46 -0.92,1.46 v 0 q 0,1.68 2.66,1.68 v 0 q 0.52,0 1.03,-0.08 0.51,-0.08 1.08,-0.26 0.56,-0.19 0.91,-0.59 0.34,-0.4 0.34,-0.95 v 0 q 0,-0.54 -0.31,-0.99 v 0 Q -4,4.93 -4.91,4.93 Z m -2.67,-6.66 q -0.64,0.49 -0.64,1.39 0,0.89 0.62,1.36 0.62,0.47 1.78,0.47 v 0 q 1.08,0 1.73,-0.47 0.66,-0.47 0.66,-1.36 v 0 q 0,-0.91 -0.67,-1.4 -0.67,-0.49 -1.72,-0.49 v 0 q -1.11,0 -1.76,0.5 z"
       opacity="1"
       fill="#424644" /><path
       inkscape:connector-curvature="0"
       id="path86"
       d="M -0.42,4.93 V -6.53 h 1.13 v 4.93 q 1.08,-1.47 3.03,-1.47 v 0 q 1.58,0 2.45,0.87 0.88,0.88 0.88,2.55 v 0 4.58 H 5.94 v -4.6 q 0,-1.18 -0.56,-1.8 Q 4.82,-2.1 3.74,-2.1 v 0 q -1.05,0 -1.75,0.42 -0.7,0.41 -1.28,1.32 v 0 5.29 z"
       opacity="1"
       fill="#424644" /><path
       inkscape:connector-curvature="0"
       id="path88"
       d=""
       opacity="1"
       fill="#424644" /><path
       inkscape:connector-curvature="0"
       id="path90"
       d="m 14.3,-1.91 -1.27,-0.18 v -0.45 l 0.97,-0.6 1.09,-1.71 0.34,0.05 v 1.88 h 3.22 l -0.05,1.01 -3.17,-0.11 v 4.28 q 0,1.82 1.65,1.82 v 0 q 0.94,0 1.74,-0.48 v 0 l 0.42,0.89 q -0.95,0.6 -2.29,0.6 v 0 q -2.65,0 -2.65,-2.81 v 0 z"
       opacity="1"
       fill="#424644" /><path
       inkscape:connector-curvature="0"
       id="path92"
       d="m 27.45,1.26 v 0 h -6.59 q 0.08,1.41 1,2.12 0.92,0.72 2.28,0.72 v 0 q 1.63,0 2.73,-0.58 v 0 l 0.33,0.99 q -1.27,0.58 -3.12,0.58 v 0 Q 21.99,5.09 20.85,4 19.72,2.91 19.72,1.02 v 0 q 0,-1.82 1.2,-2.96 1.21,-1.13 3.05,-1.13 v 0 q 1.79,0 2.7,0.87 0.91,0.88 0.91,2.34 v 0 q 0,0.62 -0.13,1.12 z M 20.88,0.3 v 0 h 5.62 q 0,-1.29 -0.64,-1.84 -0.64,-0.56 -2.02,-0.56 v 0 q -1.13,0 -1.98,0.63 Q 21,-0.83 20.88,0.3 Z"
       opacity="1"
       fill="#424644" /><path
       inkscape:connector-curvature="0"
       id="path94"
       d="m 35.85,-2.56 v 0 l -0.5,0.9 Q 34.45,-2.1 33.18,-2.1 v 0 q -1.58,0 -2.47,0.81 -0.89,0.81 -0.89,2.31 v 0 q 0,1.37 0.9,2.22 0.89,0.84 2.23,0.84 v 0 q 1.5,0 2.63,-0.56 v 0 l 0.38,0.92 q -1.3,0.65 -3.09,0.65 v 0 q -1.92,0 -3.05,-1.14 -1.14,-1.14 -1.14,-2.9 v 0 q 0,-1.82 1.25,-2.97 1.26,-1.15 3.16,-1.15 v 0 q 1.68,0 2.76,0.51 z"
       opacity="1"
       fill="#424644" /><path
       inkscape:connector-curvature="0"
       id="path96"
       d="M 37.61,4.93 V -6.53 h 1.13 v 4.93 q 1.08,-1.47 3.03,-1.47 v 0 q 1.58,0 2.45,0.87 0.87,0.88 0.87,2.55 v 0 4.58 h -1.13 v -4.6 q 0,-1.18 -0.55,-1.8 -0.56,-0.63 -1.64,-0.63 v 0 q -1.05,0 -1.75,0.42 -0.7,0.41 -1.28,1.32 v 0 5.29 z"
       opacity="1"
       fill="#424644" /><path
       inkscape:connector-curvature="0"
       id="path98"
       d="m 47.13,4.93 v -7.85 h 0.95 l 0.12,1.42 q 1.04,-1.57 3.17,-1.57 v 0 q 1.59,0 2.43,0.87 0.85,0.88 0.85,2.55 v 0 4.58 h -1.13 v -4.6 q 0,-2.43 -2.15,-2.43 v 0 q -1.08,0 -1.82,0.42 -0.74,0.43 -1.29,1.32 v 0 5.29 z"
       opacity="1"
       fill="#424644" /><path
       inkscape:connector-curvature="0"
       id="path100"
       d="m 63.68,-1.95 q 1.24,1.12 1.24,2.96 0,1.83 -1.24,2.96 -1.24,1.12 -3.11,1.12 -1.87,0 -3.11,-1.12 -1.24,-1.13 -1.24,-2.96 0,-1.84 1.24,-2.96 1.24,-1.12 3.11,-1.12 1.87,0 3.11,1.12 z m -5.43,0.68 q -0.88,0.86 -0.88,2.28 0,1.41 0.88,2.27 0.89,0.87 2.32,0.87 1.43,0 2.31,-0.87 0.89,-0.86 0.89,-2.27 0,-1.42 -0.89,-2.28 -0.88,-0.86 -2.31,-0.86 -1.43,0 -2.32,0.86 z"
       opacity="1"
       fill="#424644" /><path
       inkscape:connector-curvature="0"
       id="path102"
       d="m 66.49,2.53 v -9.06 h 1.13 v 9.31 q 0,0.63 0.26,0.92 0.27,0.29 0.93,0.32 v 0 0.97 q -0.22,0.03 -0.38,0.03 v 0 q -1.94,0 -1.94,-2.49 z"
       opacity="1"
       fill="#424644" /><path
       inkscape:connector-curvature="0"
       id="path104"
       d="m 77.03,-1.95 q 1.24,1.12 1.24,2.96 0,1.83 -1.24,2.96 -1.24,1.12 -3.1,1.12 -1.87,0 -3.11,-1.12 -1.24,-1.13 -1.24,-2.96 0,-1.84 1.24,-2.96 1.24,-1.12 3.11,-1.12 1.86,0 3.1,1.12 z m -5.42,0.68 q -0.89,0.86 -0.89,2.28 0,1.41 0.89,2.27 0.89,0.87 2.32,0.87 1.42,0 2.31,-0.87 0.89,-0.86 0.89,-2.27 0,-1.42 -0.89,-2.28 -0.89,-0.86 -2.31,-0.86 -1.43,0 -2.32,0.86 z"
       opacity="1"
       fill="#424644" /><path
       inkscape:connector-curvature="0"
       id="path106"
       d="m 83.39,-3.07 h 4.21 v 0.8 h -2.03 q 1.13,0.69 1.13,1.93 v 0 q 0,1.19 -0.92,1.96 -0.92,0.77 -2.52,0.77 v 0 q -1.28,0 -2.12,-0.44 v 0 q -0.72,0.3 -0.72,0.97 v 0 q 0,0.46 0.38,0.76 0.38,0.31 1.18,0.31 v 0 h 2.07 q 1.41,0 2.6,0.3 v 0 q 0.63,0.81 0.63,1.77 v 0 q 0,0.82 -0.42,1.41 -0.43,0.58 -1.13,0.88 -0.71,0.3 -1.44,0.43 -0.73,0.14 -1.53,0.14 v 0 q -1.69,0 -2.6,-0.65 -0.91,-0.64 -0.91,-1.79 v 0 q 0,-1.24 1.08,-1.96 v 0 Q 79.45,4.1 79.45,3.08 v 0 q 0,-1.04 1.02,-1.65 v 0 Q 79.84,0.69 79.84,-0.34 v 0 q 0,-1.26 0.94,-2 0.93,-0.73 2.61,-0.73 z m 0.78,8 v 0 h -1.93 q -0.47,0 -1.06,-0.08 v 0 q -0.93,0.46 -0.93,1.46 v 0 q 0,1.68 2.67,1.68 v 0 q 0.52,0 1.03,-0.08 0.51,-0.08 1.07,-0.26 0.57,-0.19 0.91,-0.59 0.35,-0.4 0.35,-0.95 v 0 q 0,-0.54 -0.32,-0.99 v 0 Q 85.08,4.93 84.17,4.93 Z m -2.66,-6.66 q -0.65,0.49 -0.65,1.39 0,0.89 0.62,1.36 0.62,0.47 1.78,0.47 v 0 q 1.09,0 1.74,-0.47 0.65,-0.47 0.65,-1.36 v 0 q 0,-0.91 -0.67,-1.4 -0.66,-0.49 -1.72,-0.49 v 0 q -1.11,0 -1.75,0.5 z"
       opacity="1"
       fill="#424644" /><path
       inkscape:connector-curvature="0"
       id="path108"
       d="m 92.24,5.07 -3.97,-7.99 h 1.27 l 3.2,6.66 h 0.1 l 2.59,-6.66 h 1.25 l -3.86,9.4 q -0.31,0.76 -0.96,1.18 -0.65,0.42 -1.42,0.42 v 0 q -0.44,0 -0.9,-0.17 v 0 l 0.19,-0.92 q 0.28,0.07 0.64,0.07 v 0 q 1.18,0 1.6,-1.22 v 0 z"
       opacity="1"
       fill="#424644" /></g></g></svg>
